<?xml version="1.0" encoding="UTF-8"?>
<svg xmlns="http://www.w3.org/2000/svg" xmlns:xlink="http://www.w3.org/1999/xlink" viewBox="0 0 96 96" width="96px" height="96px">
<g id="surface8892352">
<path style=" stroke:none;fill-rule:nonzero;fill:rgb(91.37255%,12.54902%,38.82353%);fill-opacity:1;" d="M 48 96 C 21.492188 96 0 74.507812 0 48 C 0 21.492188 21.492188 0 48 0 C 74.507812 0 96 21.492188 96 48 C 96 74.507812 74.507812 96 48 96 Z M 48 96 "/>
<path style=" stroke:none;fill-rule:nonzero;fill:rgb(100%,100%,100%);fill-opacity:1;" d="M 31.140625 19.238281 C 27.515625 19.167969 24.507812 20.203125 22.351562 22.355469 C 18.628906 26.082031 18.191406 32.332031 21.128906 39.96875 C 22.136719 42.585938 23.511719 45.292969 25.195312 48.003906 C 23.511719 50.714844 22.136719 53.417969 21.128906 56.039062 C 18.195312 63.675781 18.628906 69.925781 22.351562 73.652344 C 24.449219 75.742188 27.339844 76.800781 30.828125 76.800781 C 33.078125 76.800781 35.59375 76.332031 38.289062 75.449219 C 36.890625 73.808594 35.871094 71.839844 35.445312 69.636719 C 31.503906 70.78125 28.378906 70.625 26.878906 69.125 C 25.101562 67.351562 25.1875 63.320312 27.101562 58.339844 C 27.679688 56.84375 28.394531 55.304688 29.238281 53.753906 C 31.082031 56.109375 33.117188 58.429688 35.34375 60.660156 C 35.714844 61.03125 36.101562 61.359375 36.476562 61.71875 C 37.417969 59.75 38.824219 58.054688 40.589844 56.796875 C 40.351562 56.566406 40.101562 56.367188 39.871094 56.132812 C 37.246094 53.511719 34.917969 50.765625 32.914062 48.003906 C 34.917969 45.242188 37.25 42.496094 39.871094 39.875 C 40.105469 39.636719 40.351562 39.441406 40.589844 39.210938 C 38.828125 37.953125 37.417969 36.257812 36.476562 34.285156 C 36.097656 34.648438 35.714844 34.976562 35.34375 35.347656 C 33.117188 37.574219 31.082031 39.894531 29.238281 42.253906 C 28.398438 40.699219 27.679688 39.164062 27.101562 37.667969 C 25.1875 32.6875 25.105469 28.65625 26.878906 26.882812 C 27.730469 26.03125 29.097656 25.605469 30.839844 25.605469 C 32.171875 25.605469 33.738281 25.867188 35.445312 26.363281 C 35.871094 24.167969 36.890625 22.203125 38.28125 20.5625 C 35.710938 19.71875 33.316406 19.28125 31.140625 19.238281 Z M 64.867188 19.238281 C 62.691406 19.28125 60.289062 19.71875 57.71875 20.5625 C 59.109375 22.203125 60.128906 24.164062 60.554688 26.363281 C 62.261719 25.867188 63.828125 25.605469 65.160156 25.605469 C 66.902344 25.605469 68.269531 26.03125 69.121094 26.882812 C 70.898438 28.65625 70.8125 32.6875 68.898438 37.667969 C 68.320312 39.164062 67.605469 40.695312 66.761719 42.246094 C 64.917969 39.894531 62.882812 37.574219 60.65625 35.347656 C 60.285156 34.976562 59.898438 34.640625 59.523438 34.28125 C 58.582031 36.25 57.175781 37.945312 55.410156 39.203125 C 55.648438 39.433594 55.902344 39.632812 56.136719 39.867188 C 58.761719 42.492188 61.082031 45.234375 63.085938 47.996094 C 61.082031 50.757812 58.757812 53.503906 56.136719 56.128906 C 55.898438 56.363281 55.648438 56.566406 55.410156 56.796875 C 57.175781 58.054688 58.582031 59.75 59.523438 61.71875 C 59.898438 61.359375 60.285156 61.023438 60.65625 60.652344 C 62.882812 58.425781 64.917969 56.109375 66.761719 53.753906 C 67.605469 55.304688 68.320312 56.835938 68.898438 58.332031 C 70.8125 63.3125 70.898438 67.34375 69.121094 69.121094 C 67.617188 70.621094 64.492188 70.78125 60.554688 69.636719 C 60.128906 71.839844 59.105469 73.800781 57.710938 75.445312 C 60.402344 76.332031 62.917969 76.800781 65.171875 76.800781 C 68.660156 76.800781 71.554688 75.742188 73.648438 73.652344 C 77.371094 69.925781 77.808594 63.675781 74.871094 56.039062 C 73.863281 53.417969 72.488281 50.714844 70.804688 48.003906 C 72.488281 45.292969 73.863281 42.585938 74.871094 39.96875 C 77.804688 32.332031 77.371094 26.082031 73.648438 22.355469 C 71.492188 20.203125 68.492188 19.167969 64.867188 19.238281 Z M 48 22.40625 C 44.464844 22.40625 41.601562 25.273438 41.601562 28.804688 C 41.601562 32.339844 44.464844 35.203125 48 35.203125 C 51.535156 35.203125 54.398438 32.339844 54.398438 28.804688 C 54.398438 25.273438 51.535156 22.40625 48 22.40625 Z M 48 60.800781 C 44.464844 60.800781 41.601562 63.667969 41.601562 67.203125 C 41.601562 70.734375 44.464844 73.601562 48 73.601562 C 51.535156 73.601562 54.398438 70.734375 54.398438 67.203125 C 54.398438 63.667969 51.535156 60.800781 48 60.800781 Z M 48 60.800781 "/>
</g>
</svg>
