<?xml version="1.0" encoding="UTF-8"?>
<svg xmlns="http://www.w3.org/2000/svg" xmlns:xlink="http://www.w3.org/1999/xlink" viewBox="0 0 384 384" width="384px" height="384px">
<g id="surface19399592">
<path style=" stroke:none;fill-rule:nonzero;fill:rgb(91.37255%,12.54902%,38.82353%);fill-opacity:1;" d="M 192 384 C 85.960938 384 0 298.039062 0 192 C 0 85.960938 85.960938 0 192 0 C 298.039062 0 384 85.960938 384 192 C 384 298.039062 298.039062 384 192 384 Z M 192 384 "/>
<path style=" stroke:none;fill-rule:nonzero;fill:rgb(100%,100%,100%);fill-opacity:1;" d="M 97.570312 30.886719 C 77.265625 30.488281 60.433594 36.300781 48.359375 48.351562 C 27.5 69.210938 25.050781 104.222656 41.5 146.980469 C 47.144531 161.65625 54.859375 176.8125 64.285156 191.992188 C 54.859375 207.167969 47.144531 222.324219 41.5 237 C 25.066406 279.757812 27.5 314.773438 48.359375 335.632812 C 60.097656 347.351562 76.289062 353.273438 95.820312 353.273438 C 108.4375 353.273438 122.519531 350.65625 137.609375 345.710938 C 129.777344 336.519531 124.070312 325.492188 121.683594 313.160156 C 99.609375 319.558594 82.105469 318.695312 73.699219 310.292969 C 63.753906 300.347656 64.242188 277.765625 74.960938 249.882812 C 78.1875 241.496094 82.199219 232.882812 86.929688 224.191406 C 97.25 237.378906 108.652344 250.394531 121.125 262.867188 C 123.203125 264.945312 125.363281 266.792969 127.460938 268.816406 C 132.726562 257.777344 140.617188 248.277344 150.488281 241.238281 C 149.164062 239.945312 147.773438 238.835938 146.464844 237.527344 C 131.769531 222.832031 118.726562 207.457031 107.511719 191.992188 C 118.726562 176.527344 131.789062 161.152344 146.464844 146.457031 C 147.792969 145.128906 149.164062 144.035156 150.488281 142.746094 C 140.632812 135.703125 132.726562 126.207031 127.460938 115.167969 C 125.34375 117.191406 123.203125 119.039062 121.125 121.117188 C 108.652344 133.589844 97.25 146.585938 86.929688 159.792969 C 82.21875 151.082031 78.1875 142.488281 74.960938 134.101562 C 64.226562 106.21875 63.773438 83.636719 73.699219 73.691406 C 78.484375 68.941406 86.125 66.550781 95.890625 66.550781 C 103.363281 66.550781 112.117188 68.007812 121.683594 70.785156 C 124.070312 58.492188 129.78125 47.5 137.574219 38.304688 C 123.175781 33.589844 109.75 31.125 97.570312 30.886719 Z M 286.464844 30.886719 C 274.28125 31.125 260.832031 33.589844 246.425781 38.308594 C 254.21875 47.5 259.929688 58.476562 262.316406 70.785156 C 271.882812 68.007812 280.636719 66.550781 288.109375 66.550781 C 297.875 66.550781 305.535156 68.941406 310.300781 73.691406 C 320.246094 83.636719 319.757812 106.21875 309.039062 134.101562 C 305.8125 142.488281 301.800781 151.066406 297.070312 159.757812 C 286.75 146.566406 275.347656 133.589844 262.875 121.117188 C 260.796875 119.039062 258.636719 117.15625 256.539062 115.132812 C 251.273438 126.171875 243.382812 135.667969 233.511719 142.710938 C 234.835938 144 236.261719 145.113281 237.570312 146.421875 C 252.265625 161.117188 265.273438 176.492188 276.488281 191.957031 C 265.273438 207.421875 252.246094 222.796875 237.570312 237.492188 C 236.242188 238.816406 234.835938 239.945312 233.511719 241.238281 C 243.382812 248.277344 251.273438 257.777344 256.539062 268.816406 C 258.636719 266.792969 260.796875 264.910156 262.875 262.832031 C 275.347656 250.359375 286.75 237.398438 297.070312 224.191406 C 301.800781 232.882812 305.8125 241.460938 309.039062 249.847656 C 319.773438 277.730469 320.246094 300.3125 310.300781 310.257812 C 301.878906 318.660156 284.375 319.558594 262.316406 313.160156 C 259.929688 325.492188 254.203125 336.464844 246.390625 345.675781 C 261.460938 350.640625 275.546875 353.273438 288.179688 353.273438 C 307.710938 353.273438 323.921875 347.351562 335.640625 335.632812 C 356.5 314.773438 358.949219 279.757812 342.5 237 C 336.855469 222.324219 329.140625 207.167969 319.714844 191.992188 C 329.140625 176.8125 336.855469 161.65625 342.5 146.980469 C 358.933594 104.222656 356.5 69.210938 335.640625 48.351562 C 323.578125 36.300781 306.769531 30.488281 286.464844 30.886719 Z M 192 48.632812 C 172.207031 48.632812 156.160156 64.679688 156.160156 84.472656 C 156.160156 104.265625 172.207031 120.3125 192 120.3125 C 211.792969 120.3125 227.839844 104.265625 227.839844 84.472656 C 227.839844 64.679688 211.792969 48.632812 192 48.632812 Z M 192 263.671875 C 172.207031 263.671875 156.160156 279.71875 156.160156 299.511719 C 156.160156 319.304688 172.207031 335.351562 192 335.351562 C 211.792969 335.351562 227.839844 319.304688 227.839844 299.511719 C 227.839844 279.71875 211.792969 263.671875 192 263.671875 Z M 192 263.671875 "/>
</g>
</svg>
