<?xml version="1.0" encoding="UTF-8"?>
<svg xmlns="http://www.w3.org/2000/svg" xmlns:xlink="http://www.w3.org/1999/xlink" viewBox="0 0 384 384" width="384px" height="384px">
<g id="surface8917778">
<path style=" stroke:none;fill-rule:nonzero;fill:rgb(91.37255%,12.54902%,38.82353%);fill-opacity:1;" d="M 192 384 C 85.960938 384 0 298.039062 0 192 C 0 85.960938 85.960938 0 192 0 C 298.039062 0 384 85.960938 384 192 C 384 298.039062 298.039062 384 192 384 Z M 192 384 "/>
<path style=" stroke:none;fill-rule:nonzero;fill:rgb(100%,100%,100%);fill-opacity:1;" d="M 124.558594 76.953125 C 110.058594 76.667969 98.035156 80.820312 89.414062 89.425781 C 74.515625 104.324219 72.765625 129.332031 84.511719 159.867188 C 88.542969 170.351562 94.054688 181.171875 100.785156 192.015625 C 94.054688 202.855469 88.542969 213.679688 84.511719 224.160156 C 72.777344 254.695312 74.515625 279.703125 89.414062 294.601562 C 97.796875 302.972656 109.359375 307.199219 123.308594 307.199219 C 132.316406 307.199219 142.378906 305.332031 153.15625 301.800781 C 147.5625 295.234375 143.484375 287.359375 141.78125 278.554688 C 126.011719 283.121094 113.511719 282.507812 107.511719 276.503906 C 100.40625 269.402344 100.757812 253.273438 108.410156 233.359375 C 110.714844 227.371094 113.582031 221.21875 116.957031 215.011719 C 124.332031 224.429688 132.472656 233.726562 141.382812 242.632812 C 142.867188 244.117188 144.40625 245.4375 145.90625 246.882812 C 149.667969 239 155.300781 232.214844 162.351562 227.183594 C 161.40625 226.261719 160.414062 225.46875 159.480469 224.535156 C 148.984375 214.039062 139.667969 203.058594 131.65625 192.015625 C 139.667969 180.96875 148.996094 169.988281 159.480469 159.492188 C 160.425781 158.546875 161.40625 157.765625 162.351562 156.84375 C 155.3125 151.8125 149.667969 145.03125 145.90625 137.144531 C 144.394531 138.589844 142.867188 139.910156 141.382812 141.394531 C 132.472656 150.300781 124.332031 159.585938 116.957031 169.015625 C 113.59375 162.796875 110.714844 156.660156 108.410156 150.667969 C 100.742188 130.753906 100.417969 114.628906 107.511719 107.523438 C 110.925781 104.132812 116.382812 102.425781 123.359375 102.425781 C 128.695312 102.425781 134.945312 103.464844 141.78125 105.449219 C 143.484375 96.667969 147.5625 88.816406 153.128906 82.253906 C 142.84375 78.882812 133.257812 77.125 124.558594 76.953125 Z M 259.46875 76.953125 C 250.765625 77.125 241.160156 78.882812 230.871094 82.25 C 236.4375 88.816406 240.515625 96.65625 242.21875 105.449219 C 249.054688 103.464844 255.304688 102.425781 260.640625 102.425781 C 267.617188 102.425781 273.085938 104.132812 276.488281 107.523438 C 283.59375 114.628906 283.242188 130.753906 275.589844 150.667969 C 273.285156 156.660156 270.417969 162.785156 267.042969 168.992188 C 259.667969 159.570312 251.527344 150.300781 242.617188 141.394531 C 241.132812 139.910156 239.59375 138.566406 238.09375 137.121094 C 234.332031 145.003906 228.699219 151.789062 221.648438 156.816406 C 222.59375 157.738281 223.613281 158.535156 224.546875 159.46875 C 235.039062 169.960938 244.332031 180.945312 252.34375 191.988281 C 244.332031 203.035156 235.027344 214.015625 224.546875 224.511719 C 223.597656 225.457031 222.59375 226.261719 221.648438 227.183594 C 228.699219 232.214844 234.332031 239 238.09375 246.882812 C 239.59375 245.4375 241.132812 244.09375 242.617188 242.609375 C 251.527344 233.699219 259.667969 224.445312 267.042969 215.011719 C 270.417969 221.21875 273.285156 227.34375 275.589844 233.335938 C 283.257812 253.25 283.59375 269.375 276.488281 276.480469 C 270.476562 282.480469 257.972656 283.121094 242.21875 278.554688 C 240.515625 287.359375 236.425781 295.199219 230.84375 301.777344 C 241.609375 305.320312 251.667969 307.199219 260.691406 307.199219 C 274.640625 307.199219 286.21875 302.972656 294.585938 294.601562 C 309.484375 279.703125 311.234375 254.695312 299.488281 224.160156 C 295.457031 213.679688 289.945312 202.855469 283.214844 192.015625 C 289.945312 181.171875 295.457031 170.351562 299.488281 159.867188 C 311.222656 129.332031 309.484375 104.324219 294.585938 89.425781 C 285.972656 80.820312 273.96875 76.667969 259.46875 76.953125 Z M 192 89.625 C 177.863281 89.625 166.402344 101.085938 166.402344 115.222656 C 166.402344 129.359375 177.863281 140.820312 192 140.820312 C 206.136719 140.820312 217.597656 129.359375 217.597656 115.222656 C 217.597656 101.085938 206.136719 89.625 192 89.625 Z M 192 243.207031 C 177.863281 243.207031 166.402344 254.667969 166.402344 268.804688 C 166.402344 282.941406 177.863281 294.402344 192 294.402344 C 206.136719 294.402344 217.597656 282.941406 217.597656 268.804688 C 217.597656 254.667969 206.136719 243.207031 192 243.207031 Z M 192 243.207031 "/>
</g>
</svg>
