<?xml version="1.0" encoding="UTF-8"?>
<svg xmlns="http://www.w3.org/2000/svg" xmlns:xlink="http://www.w3.org/1999/xlink" viewBox="0 0 48 48" width="48px" height="48px">
<g id="surface8825543">
<rect x="0" y="0" width="48" height="48" style="fill:rgb(91.37255%,12.54902%,38.82353%);fill-opacity:1;stroke:none;"/>
<path style=" stroke:none;fill-rule:nonzero;fill:rgb(100%,100%,100%);fill-opacity:1;" d="M 13.460938 6.019531 C 11.195312 5.976562 9.316406 6.625 7.96875 7.96875 C 5.640625 10.296875 5.367188 14.203125 7.203125 18.976562 C 7.832031 20.613281 8.695312 22.304688 9.746094 24 C 8.695312 25.695312 7.832031 27.386719 7.203125 29.023438 C 5.367188 33.796875 5.640625 37.703125 7.96875 40.03125 C 9.277344 41.339844 11.085938 42 13.265625 42 C 14.671875 42 16.246094 41.707031 17.929688 41.15625 C 17.054688 40.128906 16.417969 38.898438 16.152344 37.523438 C 13.6875 38.238281 11.734375 38.140625 10.796875 37.203125 C 9.6875 36.09375 9.742188 33.574219 10.9375 30.460938 C 11.296875 29.523438 11.746094 28.5625 12.273438 27.59375 C 13.425781 29.066406 14.699219 30.519531 16.089844 31.910156 C 16.320312 32.140625 16.5625 32.347656 16.796875 32.574219 C 17.386719 31.34375 18.265625 30.28125 19.367188 29.496094 C 19.21875 29.351562 19.0625 29.226562 18.917969 29.082031 C 17.277344 27.441406 15.824219 25.726562 14.570312 24 C 15.824219 22.273438 17.28125 20.558594 18.917969 18.917969 C 19.066406 18.769531 19.21875 18.648438 19.367188 18.503906 C 18.265625 17.71875 17.386719 16.65625 16.796875 15.425781 C 16.5625 15.652344 16.320312 15.859375 16.089844 16.089844 C 14.699219 17.480469 13.425781 18.933594 12.273438 20.40625 C 11.746094 19.433594 11.296875 18.476562 10.9375 17.539062 C 9.738281 14.425781 9.6875 11.90625 10.796875 10.796875 C 11.332031 10.265625 12.183594 10 13.273438 10 C 14.109375 10 15.085938 10.164062 16.152344 10.472656 C 16.417969 9.101562 17.054688 7.875 17.925781 6.847656 C 16.320312 6.320312 14.820312 6.046875 13.460938 6.019531 Z M 34.542969 6.019531 C 33.183594 6.046875 31.683594 6.320312 30.074219 6.847656 C 30.945312 7.875 31.582031 9.097656 31.847656 10.472656 C 32.914062 10.164062 33.890625 10 34.726562 10 C 35.816406 10 36.671875 10.265625 37.203125 10.796875 C 38.3125 11.90625 38.257812 14.425781 37.0625 17.539062 C 36.703125 18.476562 36.253906 19.433594 35.726562 20.402344 C 34.574219 18.929688 33.300781 17.480469 31.910156 16.089844 C 31.679688 15.859375 31.4375 15.648438 31.203125 15.421875 C 30.613281 16.652344 29.734375 17.714844 28.632812 18.5 C 28.78125 18.644531 28.941406 18.769531 29.085938 18.914062 C 30.726562 20.554688 32.175781 22.269531 33.429688 23.996094 C 32.175781 25.722656 30.722656 27.4375 29.085938 29.078125 C 28.9375 29.226562 28.78125 29.351562 28.632812 29.496094 C 29.734375 30.28125 30.613281 31.34375 31.203125 32.574219 C 31.4375 32.347656 31.679688 32.136719 31.910156 31.90625 C 33.300781 30.515625 34.574219 29.066406 35.726562 27.59375 C 36.253906 28.5625 36.703125 29.519531 37.0625 30.457031 C 38.261719 33.570312 38.3125 36.089844 37.203125 37.199219 C 36.261719 38.136719 34.308594 38.238281 31.847656 37.523438 C 31.582031 38.898438 30.941406 40.125 30.070312 41.152344 C 31.753906 41.707031 33.324219 42 34.734375 42 C 36.914062 42 38.722656 41.339844 40.03125 40.03125 C 42.359375 37.703125 42.632812 33.796875 40.796875 29.023438 C 40.167969 27.386719 39.304688 25.695312 38.253906 24 C 39.304688 22.304688 40.167969 20.613281 40.796875 18.976562 C 42.632812 14.203125 42.359375 10.296875 40.03125 7.96875 C 38.683594 6.625 36.808594 5.976562 34.542969 6.019531 Z M 24 8 C 21.789062 8 20 9.789062 20 12 C 20 14.210938 21.789062 16 24 16 C 26.210938 16 28 14.210938 28 12 C 28 9.789062 26.210938 8 24 8 Z M 24 32 C 21.789062 32 20 33.789062 20 36 C 20 38.210938 21.789062 40 24 40 C 26.210938 40 28 38.210938 28 36 C 28 33.789062 26.210938 32 24 32 Z M 24 32 "/>
</g>
</svg>
