<?xml version="1.0" encoding="UTF-8"?>
<svg xmlns="http://www.w3.org/2000/svg" xmlns:xlink="http://www.w3.org/1999/xlink" width="375pt" height="374.999991pt" viewBox="0 0 375 374.999991" version="1.2">
<g id="surface1">
<rect x="0" y="0" width="375" height="374.999991" style="fill:rgb(100%,100%,100%);fill-opacity:1;stroke:none;"/>
<rect x="0" y="0" width="375" height="374.999991" style="fill:rgb(100%,100%,100%);fill-opacity:1;stroke:none;"/>
<rect x="0" y="0" width="375" height="374.999991" style="fill:rgb(100%,100%,100%);fill-opacity:1;stroke:none;"/>
<path style=" stroke:none;fill-rule:nonzero;fill:rgb(16.079712%,50.19989%,72.549438%);fill-opacity:1;" d="M 187.5 375 C 83.945312 375 0 291.054688 0 187.5 C 0 83.945312 83.945312 0 187.5 0 C 291.054688 0 375 83.945312 375 187.5 C 375 291.054688 291.054688 375 187.5 375 Z M 187.5 375 "/>
<path style=" stroke:none;fill-rule:nonzero;fill:rgb(100%,100%,100%);fill-opacity:1;" d="M 95.285156 30.164062 C 75.453125 29.773438 59.015625 35.449219 47.226562 47.21875 C 26.855469 67.589844 24.464844 101.78125 40.527344 143.535156 C 46.039062 157.867188 53.574219 172.667969 62.777344 187.492188 C 53.574219 202.3125 46.039062 217.113281 40.527344 231.445312 C 24.480469 273.199219 26.855469 307.394531 47.226562 327.765625 C 58.6875 339.210938 74.5 344.992188 93.574219 344.992188 C 105.894531 344.992188 119.648438 342.4375 134.382812 337.609375 C 126.734375 328.632812 121.164062 317.863281 118.832031 305.820312 C 97.273438 312.070312 80.179688 311.226562 71.972656 303.019531 C 62.257812 293.308594 62.738281 271.253906 73.203125 244.027344 C 76.355469 235.835938 80.273438 227.425781 84.890625 218.9375 C 94.972656 231.816406 106.105469 244.527344 118.285156 256.707031 C 120.316406 258.734375 122.425781 260.539062 124.472656 262.515625 C 129.617188 251.734375 137.320312 242.457031 146.960938 235.585938 C 145.667969 234.320312 144.308594 233.238281 143.03125 231.960938 C 128.679688 217.609375 115.945312 202.59375 104.992188 187.492188 C 115.945312 172.390625 128.699219 157.375 143.03125 143.023438 C 144.328125 141.726562 145.667969 140.660156 146.960938 139.402344 C 137.335938 132.523438 129.617188 123.25 124.472656 112.46875 C 122.40625 114.445312 120.316406 116.25 118.285156 118.277344 C 106.105469 130.457031 94.972656 143.148438 84.890625 156.046875 C 80.292969 147.542969 76.355469 139.148438 73.203125 130.957031 C 62.722656 103.730469 62.277344 81.675781 71.972656 71.964844 C 76.644531 67.324219 84.105469 64.992188 93.644531 64.992188 C 100.941406 64.992188 109.488281 66.414062 118.832031 69.125 C 121.164062 57.121094 126.738281 46.386719 134.351562 37.40625 C 120.289062 32.800781 107.179688 30.394531 95.285156 30.164062 Z M 279.75 30.164062 C 267.851562 30.394531 254.71875 32.800781 240.648438 37.410156 C 248.261719 46.386719 253.835938 57.105469 256.167969 69.125 C 265.511719 66.414062 274.058594 64.992188 281.355469 64.992188 C 290.894531 64.992188 298.375 67.324219 303.027344 71.964844 C 312.742188 81.675781 312.261719 103.730469 301.796875 130.957031 C 298.644531 139.148438 294.726562 147.527344 290.109375 156.011719 C 280.03125 143.132812 268.894531 130.457031 256.714844 118.277344 C 254.683594 116.25 252.574219 114.410156 250.527344 112.433594 C 245.382812 123.214844 237.679688 132.488281 228.039062 139.367188 C 229.332031 140.625 230.722656 141.710938 232.003906 142.988281 C 246.351562 157.339844 259.054688 172.355469 270.007812 187.457031 C 259.054688 202.558594 246.335938 217.574219 232.003906 231.925781 C 230.707031 233.21875 229.332031 234.320312 228.039062 235.585938 C 237.679688 242.457031 245.382812 251.734375 250.527344 262.515625 C 252.574219 260.539062 254.683594 258.703125 256.714844 256.671875 C 268.894531 244.492188 280.03125 231.835938 290.109375 218.9375 C 294.726562 227.425781 298.644531 235.800781 301.796875 243.992188 C 312.277344 271.222656 312.742188 293.273438 303.027344 302.984375 C 294.804688 311.191406 277.710938 312.070312 256.167969 305.820312 C 253.835938 317.863281 248.246094 328.578125 240.617188 337.574219 C 255.332031 342.421875 269.089844 344.992188 281.425781 344.992188 C 300.5 344.992188 316.328125 339.210938 327.773438 327.765625 C 348.144531 307.394531 350.535156 273.199219 334.472656 231.445312 C 328.960938 217.113281 321.425781 202.3125 312.222656 187.492188 C 321.425781 172.667969 328.960938 157.867188 334.472656 143.535156 C 350.519531 101.78125 348.144531 67.589844 327.773438 47.21875 C 315.996094 35.449219 299.578125 29.773438 279.75 30.164062 Z M 187.5 47.492188 C 168.171875 47.492188 152.5 63.164062 152.5 82.492188 C 152.5 101.820312 168.171875 117.492188 187.5 117.492188 C 206.828125 117.492188 222.5 101.820312 222.5 82.492188 C 222.5 63.164062 206.828125 47.492188 187.5 47.492188 Z M 187.5 257.492188 C 168.171875 257.492188 152.5 273.164062 152.5 292.492188 C 152.5 311.820312 168.171875 327.492188 187.5 327.492188 C 206.828125 327.492188 222.5 311.820312 222.5 292.492188 C 222.5 273.164062 206.828125 257.492188 187.5 257.492188 Z M 187.5 257.492188 "/>
</g>
</svg>
